<mxfile host="app.diagrams.net" modified="2020-11-17T13:30:52.927Z" agent="5.0 (Windows)" etag="acj6Tqni1y848nLXGHgn" version="13.9.7" type="github">
  <diagram id="prtHgNgQTEPvFCAcTncT" name="Page-1">
    <mxGraphModel dx="782" dy="469" grid="1" gridSize="10" guides="1" tooltips="1" connect="1" arrows="1" fold="1" page="1" pageScale="1" pageWidth="827" pageHeight="1169" math="0" shadow="0">
      <root>
        <mxCell id="0" />
        <mxCell id="1" parent="0" />
        <mxCell id="lvoN21BrQN5qua_dWYZV-4" value="State" style="html=1;align=center;verticalAlign=top;rounded=1;absoluteArcSize=1;arcSize=10;dashed=0;" vertex="1" parent="1">
          <mxGeometry x="110" y="260" width="140" height="40" as="geometry" />
        </mxCell>
        <mxCell id="lvoN21BrQN5qua_dWYZV-6" value="" style="rounded=0;orthogonalLoop=1;jettySize=auto;html=1;endArrow=none;endFill=0;exitX=1;exitY=0.5;exitDx=0;exitDy=0;entryX=0.2;entryY=0.6;entryDx=0;entryDy=0;entryPerimeter=0;" edge="1" target="lvoN21BrQN5qua_dWYZV-8" parent="1" source="lvoN21BrQN5qua_dWYZV-4">
          <mxGeometry relative="1" as="geometry">
            <mxPoint x="390" y="405" as="sourcePoint" />
            <mxPoint x="280" y="105" as="targetPoint" />
            <Array as="points">
              <mxPoint x="280" y="280" />
              <mxPoint x="280" y="101" />
            </Array>
          </mxGeometry>
        </mxCell>
        <mxCell id="lvoN21BrQN5qua_dWYZV-7" value="" style="rounded=0;orthogonalLoop=1;jettySize=auto;html=1;endArrow=halfCircle;endFill=0;endSize=6;strokeWidth=1;exitX=0;exitY=0.5;exitDx=0;exitDy=0;" edge="1" parent="1" source="lvoN21BrQN5qua_dWYZV-15">
          <mxGeometry relative="1" as="geometry">
            <mxPoint x="540" y="280" as="sourcePoint" />
            <mxPoint x="310" y="100" as="targetPoint" />
          </mxGeometry>
        </mxCell>
        <mxCell id="lvoN21BrQN5qua_dWYZV-8" value="" style="ellipse;whiteSpace=wrap;html=1;fontFamily=Helvetica;fontSize=12;fontColor=#000000;align=center;strokeColor=#000000;fillColor=#ffffff;points=[];aspect=fixed;resizable=0;" vertex="1" parent="1">
          <mxGeometry x="300" y="95" width="10" height="10" as="geometry" />
        </mxCell>
        <mxCell id="lvoN21BrQN5qua_dWYZV-9" value="v1" style="html=1;align=center;verticalAlign=top;rounded=1;absoluteArcSize=1;arcSize=10;dashed=0;" vertex="1" parent="1">
          <mxGeometry x="330" y="80" width="140" height="50" as="geometry" />
        </mxCell>
        <mxCell id="lvoN21BrQN5qua_dWYZV-15" value="connV" style="html=1;" vertex="1" parent="1">
          <mxGeometry x="330" y="90" width="50" height="20" as="geometry" />
        </mxCell>
        <mxCell id="lvoN21BrQN5qua_dWYZV-16" value="next" style="html=1;" vertex="1" parent="1">
          <mxGeometry x="420" y="100" width="50" height="20" as="geometry" />
        </mxCell>
      </root>
    </mxGraphModel>
  </diagram>
</mxfile>
